<svg width="24" height="24" viewBox="0 0 24 24" fill="none" xmlns="http://www.w3.org/2000/svg">
<path d="M21.0002 18.1758C21.0002 18.5797 20.6729 18.9071 20.269 18.9071H3.73149C3.32764 18.9071 3.00024 18.5797 3.00024 18.1758V17.8709C3.00024 17.4671 3.32764 17.1397 3.73149 17.1397H3.90024V10.981C3.90024 6.57301 7.52725 3.00012 12.0002 3.00012C16.4732 3.00012 20.1002 6.57301 20.1002 10.981V17.1397H20.269C20.6729 17.1397 21.0002 17.467 21.0002 17.8709V18.1758ZM5.70024 17.1397H18.3002V10.981C18.3002 7.54952 15.4796 4.76756 12.0002 4.76756C8.52084 4.76756 5.70024 7.54952 5.70024 10.981V17.1397ZM9.87221 20.5084C9.73889 20.1271 10.0776 19.7908 10.4815 19.7908H13.519C13.9229 19.7908 14.2616 20.1271 14.1283 20.5084C14.0181 20.8234 13.8357 21.113 13.5912 21.353C13.1693 21.7674 12.597 22.0001 12.0002 22.0001C11.4035 22.0001 10.8312 21.7674 10.4093 21.353C10.1648 21.113 9.98241 20.8234 9.87221 20.5084Z" fill="#C1C1C1"/>
</svg>
