<svg width="15" height="11" viewBox="0 0 15 11" fill="none" xmlns="http://www.w3.org/2000/svg">
<path d="M3.81885 7.3374H6.0126C6.20654 7.3374 6.39253 7.26036 6.52967 7.12322C6.66681 6.98609 6.74385 6.80009 6.74385 6.60615C6.74385 6.41221 6.66681 6.22622 6.52967 6.08908C6.39253 5.95194 6.20654 5.8749 6.0126 5.8749H3.81885C3.62491 5.8749 3.43891 5.95194 3.30178 6.08908C3.16464 6.22622 3.0876 6.41221 3.0876 6.60615C3.0876 6.80009 3.16464 6.98609 3.30178 7.12322C3.43891 7.26036 3.62491 7.3374 3.81885 7.3374ZM12.5938 0.0249023H2.35635C1.77453 0.0249023 1.21654 0.256029 0.805132 0.667437C0.393724 1.07884 0.162598 1.63683 0.162598 2.21865V8.7999C0.162598 9.38172 0.393724 9.93971 0.805132 10.3511C1.21654 10.7625 1.77453 10.9937 2.35635 10.9937H12.5938C13.1757 10.9937 13.7337 10.7625 14.1451 10.3511C14.5565 9.93971 14.7876 9.38172 14.7876 8.7999V2.21865C14.7876 1.63683 14.5565 1.07884 14.1451 0.667437C13.7337 0.256029 13.1757 0.0249023 12.5938 0.0249023ZM13.3251 8.7999C13.3251 8.99384 13.2481 9.17984 13.1109 9.31697C12.9738 9.45411 12.7878 9.53115 12.5938 9.53115H2.35635C2.16241 9.53115 1.97641 9.45411 1.83928 9.31697C1.70214 9.17984 1.6251 8.99384 1.6251 8.7999V4.4124H13.3251V8.7999ZM13.3251 2.9499H1.6251V2.21865C1.6251 2.02471 1.70214 1.83872 1.83928 1.70158C1.97641 1.56444 2.16241 1.4874 2.35635 1.4874H12.5938C12.7878 1.4874 12.9738 1.56444 13.1109 1.70158C13.2481 1.83872 13.3251 2.02471 13.3251 2.21865V2.9499Z" fill="#0177FD"/>
</svg>
