<svg width="19" height="18" viewBox="0 0 19 18" fill="none" xmlns="http://www.w3.org/2000/svg">
<path d="M6.57071 8.14387C6.42608 8.14387 6.2847 8.18676 6.16445 8.26711C6.04419 8.34746 5.95047 8.46167 5.89512 8.59529C5.83978 8.7289 5.82529 8.87593 5.85351 9.01778C5.88172 9.15963 5.95137 9.28993 6.05364 9.39219C6.1559 9.49446 6.2862 9.56411 6.42805 9.59232C6.5699 9.62054 6.71693 9.60606 6.85055 9.55071C6.98416 9.49536 7.09837 9.40164 7.17872 9.28138C7.25907 9.16113 7.30196 9.01975 7.30196 8.87512C7.30196 8.68118 7.22492 8.49519 7.08778 8.35805C6.95064 8.22091 6.76465 8.14387 6.57071 8.14387V8.14387ZM9.49571 8.14387C9.35108 8.14387 9.2097 8.18676 9.08945 8.26711C8.96919 8.34746 8.87547 8.46167 8.82012 8.59529C8.76478 8.7289 8.75029 8.87593 8.77851 9.01778C8.80673 9.15963 8.87637 9.28993 8.97864 9.39219C9.0809 9.49446 9.2112 9.56411 9.35305 9.59232C9.4949 9.62054 9.64193 9.60606 9.77555 9.55071C9.90917 9.49536 10.0234 9.40164 10.1037 9.28138C10.1841 9.16113 10.227 9.01975 10.227 8.87512C10.227 8.68118 10.1499 8.49519 10.0128 8.35805C9.87564 8.22091 9.68965 8.14387 9.49571 8.14387ZM12.4207 8.14387C12.2761 8.14387 12.1347 8.18676 12.0144 8.26711C11.8942 8.34746 11.8005 8.46167 11.7451 8.59529C11.6898 8.7289 11.6753 8.87593 11.7035 9.01778C11.7317 9.15963 11.8014 9.28993 11.9036 9.39219C12.0059 9.49446 12.1362 9.56411 12.278 9.59232C12.4199 9.62054 12.5669 9.60606 12.7005 9.55071C12.8342 9.49536 12.9484 9.40164 13.0287 9.28138C13.1091 9.16113 13.152 9.01975 13.152 8.87512C13.152 8.68118 13.0749 8.49519 12.9378 8.35805C12.8006 8.22091 12.6146 8.14387 12.4207 8.14387ZM9.49571 1.56262C8.53542 1.56262 7.58453 1.75177 6.69734 2.11925C5.81014 2.48674 5.00402 3.02538 4.32499 3.7044C2.95363 5.07576 2.18321 6.93573 2.18321 8.87512C2.17682 10.5637 2.76148 12.2012 3.83583 13.5039L2.37333 14.9664C2.27187 15.0693 2.20313 15.1998 2.1758 15.3417C2.14847 15.4836 2.16377 15.6303 2.21977 15.7635C2.28051 15.8951 2.37897 16.0056 2.50265 16.0811C2.62634 16.1567 2.76967 16.1937 2.91446 16.1876H9.49571C11.4351 16.1876 13.2951 15.4172 14.6664 14.0458C16.0378 12.6745 16.8082 10.8145 16.8082 8.87512C16.8082 6.93573 16.0378 5.07576 14.6664 3.7044C13.2951 2.33304 11.4351 1.56262 9.49571 1.56262V1.56262ZM9.49571 14.7251H4.67677L5.35683 14.0451C5.42593 13.9773 5.4809 13.8966 5.51855 13.8075C5.55621 13.7183 5.57581 13.6226 5.57621 13.5259C5.57346 13.333 5.49461 13.149 5.35683 13.014C4.39932 12.0576 3.80306 10.7987 3.66961 9.45193C3.53617 8.10515 3.87382 6.75377 4.62502 5.62802C5.37622 4.50228 6.49451 3.67181 7.78935 3.27811C9.08419 2.88442 10.4755 2.95185 11.7262 3.46893C12.9769 3.986 14.0096 4.92072 14.6484 6.11384C15.2872 7.30696 15.4926 8.68466 15.2295 10.0122C14.9665 11.3398 14.2513 12.5351 13.2057 13.3944C12.1602 14.2538 10.8491 14.7241 9.49571 14.7251V14.7251Z" fill="#0177FD"/>
</svg>
