<svg width="46" height="46" viewBox="0 0 46 46" fill="none" xmlns="http://www.w3.org/2000/svg">
<ellipse cx="23.0973" cy="22.6778" rx="22.7516" ry="22.6778" fill="#EFECFD"/>
<path d="M12.7557 17.3177C12.7557 16.4068 13.4966 15.6684 14.4104 15.6684H16.0651C16.9789 15.6684 17.7197 16.4068 17.7197 17.3177V18.967C17.7197 19.8779 16.9789 20.6163 16.0651 20.6163H14.4104C13.4966 20.6163 12.7557 19.8779 12.7557 18.967V17.3177Z" fill="#7468E4"/>
<path d="M12.7557 25.5641C12.7557 24.6533 13.4966 23.9149 14.4104 23.9149H16.0651C16.9789 23.9149 17.7197 24.6533 17.7197 25.5641V27.2134C17.7197 28.1243 16.9789 28.8627 16.0651 28.8627H14.4104C13.4966 28.8627 12.7557 28.1243 12.7557 27.2134V25.5641Z" fill="#7468E4"/>
<path d="M29.3024 19.7916C28.3885 19.7916 27.6477 20.53 27.6477 21.4409V23.0902C27.6477 24.0011 28.3885 24.7395 29.3024 24.7395H30.957C31.8709 24.7395 32.6117 24.0011 32.6117 23.0902V21.4409C32.6117 20.53 31.8709 19.7916 30.957 19.7916H29.3024Z" fill="#7468E4"/>
<path d="M20.2017 17.3178C19.7448 17.3178 19.3744 17.687 19.3744 18.1425C19.3744 18.5979 19.7448 18.9671 20.2017 18.9671H21.0291C21.486 18.9671 21.8564 19.3363 21.8564 19.7917V24.7396C21.8564 25.1951 21.486 25.5643 21.0291 25.5643H20.2017C19.7448 25.5643 19.3744 25.9335 19.3744 26.3889C19.3744 26.8444 19.7448 27.2136 20.2017 27.2136H21.0291C22.3998 27.2136 23.5111 26.1059 23.5111 24.7396V23.0903H25.1657C25.6226 23.0903 25.993 22.7211 25.993 22.2657C25.993 21.8102 25.6226 21.441 25.1657 21.441H23.5111V19.7917C23.5111 18.4254 22.3998 17.3178 21.0291 17.3178H20.2017Z" fill="#7468E4"/>
</svg>
