<svg width="15" height="16" viewBox="0 0 15 16" fill="none" xmlns="http://www.w3.org/2000/svg">
<path d="M4.57071 7.14399C4.42608 7.14399 4.2847 7.18688 4.16445 7.26723C4.04419 7.34758 3.95047 7.46179 3.89512 7.59541C3.83978 7.72903 3.82529 7.87606 3.85351 8.0179C3.88173 8.15975 3.95137 8.29005 4.05364 8.39232C4.1559 8.49458 4.2862 8.56423 4.42805 8.59244C4.5699 8.62066 4.71693 8.60618 4.85055 8.55083C4.98416 8.49548 5.09837 8.40176 5.17872 8.28151C5.25907 8.16125 5.30196 8.01987 5.30196 7.87524C5.30196 7.6813 5.22492 7.49531 5.08778 7.35817C4.95064 7.22104 4.76465 7.14399 4.57071 7.14399ZM7.49571 7.14399C7.35108 7.14399 7.2097 7.18688 7.08945 7.26723C6.96919 7.34758 6.87547 7.46179 6.82012 7.59541C6.76478 7.72903 6.75029 7.87606 6.77851 8.0179C6.80673 8.15975 6.87637 8.29005 6.97864 8.39232C7.0809 8.49458 7.2112 8.56423 7.35305 8.59244C7.4949 8.62066 7.64193 8.60618 7.77555 8.55083C7.90916 8.49548 8.02337 8.40176 8.10372 8.28151C8.18407 8.16125 8.22696 8.01987 8.22696 7.87524C8.22696 7.6813 8.14992 7.49531 8.01278 7.35817C7.87564 7.22104 7.68965 7.14399 7.49571 7.14399ZM10.4207 7.14399C10.2761 7.14399 10.1347 7.18688 10.0144 7.26723C9.89419 7.34758 9.80047 7.46179 9.74512 7.59541C9.68978 7.72903 9.67529 7.87606 9.70351 8.0179C9.73173 8.15975 9.80137 8.29005 9.90364 8.39232C10.0059 8.49458 10.1362 8.56423 10.278 8.59244C10.4199 8.62066 10.5669 8.60618 10.7005 8.55083C10.8342 8.49548 10.9484 8.40176 11.0287 8.28151C11.1091 8.16125 11.152 8.01987 11.152 7.87524C11.152 7.6813 11.0749 7.49531 10.9378 7.35817C10.8006 7.22104 10.6146 7.14399 10.4207 7.14399ZM7.49571 0.562744C6.53542 0.562744 5.58453 0.751888 4.69734 1.11938C3.81014 1.48686 3.00402 2.0255 2.32499 2.70453C0.953631 4.07589 0.183209 5.93585 0.183209 7.87524C0.176816 9.5638 0.761476 11.2014 1.83583 12.5041L0.373334 13.9666C0.271867 14.0694 0.203133 14.2 0.175803 14.3418C0.148473 14.4837 0.163773 14.6305 0.219771 14.7636C0.280507 14.8952 0.378968 15.0058 0.502653 15.0813C0.626339 15.1568 0.769672 15.1938 0.914459 15.1877H7.49571C9.4351 15.1877 11.2951 14.4173 12.6664 13.046C14.0378 11.6746 14.8082 9.81464 14.8082 7.87524C14.8082 5.93585 14.0378 4.07589 12.6664 2.70453C11.2951 1.33317 9.4351 0.562744 7.49571 0.562744ZM7.49571 13.7252H2.67677L3.35683 13.0452C3.42593 12.9775 3.4809 12.8967 3.51855 12.8076C3.55621 12.7185 3.57581 12.6227 3.57621 12.526C3.57346 12.3331 3.49461 12.1491 3.35683 12.0141C2.39932 11.0577 1.80306 9.79883 1.66961 8.45205C1.53617 7.10527 1.87382 5.75389 2.62502 4.62814C3.37622 3.5024 4.49451 2.67193 5.78935 2.27824C7.08419 1.88454 8.47548 1.95198 9.72618 2.46905C10.9769 2.98612 12.0096 3.92085 12.6484 5.11397C13.2872 6.30708 13.4926 7.68479 13.2295 9.01234C12.9665 10.3399 12.2513 11.5352 11.2057 12.3945C10.1602 13.2539 8.84908 13.7242 7.49571 13.7252Z" fill="#0177FD"/>
</svg>
