<svg width="47" height="46" viewBox="0 0 47 46" fill="none" xmlns="http://www.w3.org/2000/svg">
<ellipse cx="23.2793" cy="22.6778" rx="22.7516" ry="22.6778" fill="#FDF1E2"/>
<path fill-rule="evenodd" clip-rule="evenodd" d="M22.8656 30.5118C27.4348 30.5118 31.1389 26.8197 31.1389 22.2653C31.1389 17.7109 27.4348 14.0189 22.8656 14.0189C18.2964 14.0189 14.5923 17.7109 14.5923 22.2653C14.5923 26.8197 18.2964 30.5118 22.8656 30.5118ZM23.6929 18.1421C23.6929 17.6867 23.3225 17.3174 22.8656 17.3174C22.4087 17.3174 22.0383 17.6867 22.0383 18.1421V22.2653C22.0383 22.484 22.1254 22.6938 22.2806 22.8484L24.3489 24.91C24.672 25.2321 25.1959 25.2321 25.5189 24.91C25.842 24.588 25.842 24.0659 25.5189 23.7438L23.6929 21.9237V18.1421Z" fill="#FFB648"/>
</svg>
