<svg width="15" height="15" viewBox="0 0 15 15" fill="none" xmlns="http://www.w3.org/2000/svg">
<path d="M7.4751 3.03779C7.28116 3.03779 7.09516 3.11484 6.95803 3.25197C6.82089 3.38911 6.74385 3.5751 6.74385 3.76904V11.0815C6.74385 11.2755 6.82089 11.4615 6.95803 11.5986C7.09516 11.7358 7.28116 11.8128 7.4751 11.8128C7.66904 11.8128 7.85503 11.7358 7.99217 11.5986C8.12931 11.4615 8.20635 11.2755 8.20635 11.0815V3.76904C8.20635 3.5751 8.12931 3.38911 7.99217 3.25197C7.85503 3.11484 7.66904 3.03779 7.4751 3.03779ZM3.81885 7.42529C3.62491 7.42529 3.43891 7.50234 3.30178 7.63947C3.16464 7.77661 3.0876 7.9626 3.0876 8.15654V11.0815C3.0876 11.2755 3.16464 11.4615 3.30178 11.5986C3.43891 11.7358 3.62491 11.8128 3.81885 11.8128C4.01279 11.8128 4.19878 11.7358 4.33592 11.5986C4.47306 11.4615 4.5501 11.2755 4.5501 11.0815V8.15654C4.5501 7.9626 4.47306 7.77661 4.33592 7.63947C4.19878 7.50234 4.01279 7.42529 3.81885 7.42529ZM11.1313 5.96279C10.9374 5.96279 10.7514 6.03983 10.6143 6.17697C10.4771 6.31411 10.4001 6.5001 10.4001 6.69404V11.0815C10.4001 11.2755 10.4771 11.4615 10.6143 11.5986C10.7514 11.7358 10.9374 11.8128 11.1313 11.8128C11.3253 11.8128 11.5113 11.7358 11.6484 11.5986C11.7856 11.4615 11.8626 11.2755 11.8626 11.0815V6.69404C11.8626 6.5001 11.7856 6.31411 11.6484 6.17697C11.5113 6.03983 11.3253 5.96279 11.1313 5.96279ZM12.5938 0.112793H2.35635C1.77453 0.112793 1.21654 0.34392 0.805132 0.755328C0.393724 1.16674 0.162598 1.72472 0.162598 2.30654V12.544C0.162598 13.1259 0.393724 13.6839 0.805132 14.0953C1.21654 14.5067 1.77453 14.7378 2.35635 14.7378H12.5938C13.1757 14.7378 13.7337 14.5067 14.1451 14.0953C14.5565 13.6839 14.7876 13.1259 14.7876 12.544V2.30654C14.7876 1.72472 14.5565 1.16674 14.1451 0.755328C13.7337 0.34392 13.1757 0.112793 12.5938 0.112793ZM13.3251 12.544C13.3251 12.738 13.2481 12.924 13.1109 13.0611C12.9738 13.1983 12.7878 13.2753 12.5938 13.2753H2.35635C2.16241 13.2753 1.97641 13.1983 1.83928 13.0611C1.70214 12.924 1.6251 12.738 1.6251 12.544V2.30654C1.6251 2.1126 1.70214 1.92661 1.83928 1.78947C1.97641 1.65234 2.16241 1.57529 2.35635 1.57529H12.5938C12.7878 1.57529 12.9738 1.65234 13.1109 1.78947C13.2481 1.92661 13.3251 2.1126 13.3251 2.30654V12.544Z" fill="#0177FD"/>
</svg>
