<svg width="47" height="46" viewBox="0 0 47 46" fill="none" xmlns="http://www.w3.org/2000/svg">
<ellipse cx="23.3249" cy="22.6778" rx="22.7516" ry="22.6778" fill="#E4F8FB"/>
<path d="M28.7023 18.1426H15.465C14.5511 18.1426 13.8103 18.8811 13.8103 19.7919V29.6877C13.8103 30.5986 14.5511 31.337 15.465 31.337H22.4973C22.7258 31.337 22.911 31.1524 22.911 30.9247V27.2137C22.911 26.3029 23.6518 25.5645 24.5656 25.5645H29.9433C30.1717 25.5645 30.3569 25.3798 30.3569 25.1521V19.7919C30.3569 18.8811 29.6161 18.1426 28.7023 18.1426Z" fill="#51D5EC"/>
<path d="M24.5664 28.0386C24.5664 27.5832 24.9368 27.214 25.3937 27.214H31.1851C31.642 27.214 32.0124 27.5832 32.0124 28.0386V32.1619C32.0124 32.6173 31.642 32.9865 31.1851 32.9865H25.3937C24.9368 32.9865 24.5664 32.6173 24.5664 32.1619V28.0386Z" fill="#51D5EC"/>
</svg>
