<svg width="15" height="16" viewBox="0 0 15 16" fill="none" xmlns="http://www.w3.org/2000/svg">
<path d="M12.5938 7.875H7.4751V2.75625C7.4751 2.3175 7.1826 2.025 6.74385 2.025C3.0876 2.025 0.162598 4.95 0.162598 8.60625C0.162598 12.2625 3.0876 15.1875 6.74385 15.1875C10.4001 15.1875 13.3251 12.2625 13.3251 8.60625C13.3251 8.1675 13.0326 7.875 12.5938 7.875ZM7.4751 13.6519C4.69635 14.0906 2.06385 12.1163 1.69822 9.3375C1.25947 6.55875 3.23385 3.92625 6.0126 3.56062V8.60625C6.0126 9.045 6.3051 9.3375 6.74385 9.3375H11.7895C11.497 11.6044 9.74197 13.3594 7.4751 13.6519ZM9.66885 0.5625C9.2301 0.5625 8.9376 0.855 8.9376 1.29375V5.68125C8.9376 6.12 9.2301 6.4125 9.66885 6.4125H14.0563C14.4951 6.4125 14.7876 6.12 14.7876 5.68125C14.7876 2.82937 12.5207 0.5625 9.66885 0.5625ZM10.4001 4.95V2.09812C11.8626 2.39062 12.9595 3.4875 13.252 4.95H10.4001Z" fill="#0177FD"/>
</svg>
