<svg width="15" height="16" viewBox="0 0 15 16" fill="none" xmlns="http://www.w3.org/2000/svg">
<path d="M6.02402 4.95H10.4115C10.6055 4.95 10.7915 4.87296 10.9286 4.73582C11.0657 4.59869 11.1428 4.41269 11.1428 4.21875C11.1428 4.02481 11.0657 3.83881 10.9286 3.70168C10.7915 3.56454 10.6055 3.4875 10.4115 3.4875H6.02402C5.83008 3.4875 5.64409 3.56454 5.50695 3.70168C5.36982 3.83881 5.29277 4.02481 5.29277 4.21875C5.29277 4.41269 5.36982 4.59869 5.50695 4.73582C5.64409 4.87296 5.83008 4.95 6.02402 4.95ZM4.56152 7.875H10.4115C10.6055 7.875 10.7915 7.79796 10.9286 7.66082C11.0657 7.52369 11.1428 7.33769 11.1428 7.14375C11.1428 6.94981 11.0657 6.76381 10.9286 6.62668C10.7915 6.48954 10.6055 6.4125 10.4115 6.4125H4.56152C4.36758 6.4125 4.18159 6.48954 4.04445 6.62668C3.90732 6.76381 3.83027 6.94981 3.83027 7.14375C3.83027 7.33769 3.90732 7.52369 4.04445 7.66082C4.18159 7.79796 4.36758 7.875 4.56152 7.875ZM4.56152 10.8H10.4115C10.6055 10.8 10.7915 10.723 10.9286 10.5858C11.0657 10.4487 11.1428 10.2627 11.1428 10.0688C11.1428 9.87481 11.0657 9.68882 10.9286 9.55168C10.7915 9.41454 10.6055 9.3375 10.4115 9.3375H4.56152C4.36758 9.3375 4.18159 9.41454 4.04445 9.55168C3.90732 9.68882 3.83027 9.87481 3.83027 10.0688C3.83027 10.2627 3.90732 10.4487 4.04445 10.5858C4.18159 10.723 4.36758 10.8 4.56152 10.8ZM13.3365 0.5625H1.63652C1.44258 0.5625 1.25659 0.639542 1.11945 0.776678C0.982316 0.913814 0.905273 1.09981 0.905273 1.29375V14.4563C0.905273 14.5921 0.94309 14.7252 1.01449 14.8407C1.08588 14.9562 1.18803 15.0496 1.3095 15.1103C1.43096 15.171 1.56694 15.1967 1.70219 15.1845C1.83745 15.1724 1.96663 15.1227 2.07527 15.0413L3.58896 13.9078L5.09534 15.0413C5.22191 15.1362 5.37587 15.1875 5.53409 15.1875C5.69231 15.1875 5.84626 15.1362 5.97284 15.0413L7.48652 13.9078L9.00021 15.0413C9.12679 15.1362 9.28074 15.1875 9.43896 15.1875C9.59718 15.1875 9.75113 15.1362 9.87771 15.0413L11.3841 13.9078L12.8978 15.0413C13.0069 15.1226 13.1367 15.1719 13.2723 15.1835C13.408 15.1951 13.5442 15.1687 13.6656 15.1071C13.7862 15.0463 13.8876 14.9533 13.9586 14.8384C14.0296 14.7236 14.0674 14.5913 14.0678 14.4563V1.29375C14.0678 1.09981 13.9907 0.913814 13.8536 0.776678C13.7165 0.639542 13.5305 0.5625 13.3365 0.5625ZM12.6053 12.9938L11.8228 12.4088C11.6963 12.3138 11.5423 12.2625 11.3841 12.2625C11.2259 12.2625 11.0719 12.3138 10.9453 12.4088L9.43896 13.5422L7.92527 12.4088C7.7987 12.3138 7.64474 12.2625 7.48652 12.2625C7.3283 12.2625 7.17435 12.3138 7.04777 12.4088L5.53409 13.5422L4.02771 12.4088C3.90113 12.3138 3.74718 12.2625 3.58896 12.2625C3.43074 12.2625 3.27679 12.3138 3.15021 12.4088L2.36777 12.9938V2.025H12.6053V12.9938Z" fill="#0177FD"/>
</svg>
