<svg width="46" height="46" viewBox="0 0 46 46" fill="none" xmlns="http://www.w3.org/2000/svg">
<ellipse cx="22.82" cy="22.6778" rx="22.7516" ry="22.6778" fill="#E5F7ED"/>
<path d="M20.7517 28.1796C20.7517 29.0904 20.0109 29.8289 19.097 29.8289C18.1832 29.8289 17.4424 29.0904 17.4424 28.1796C17.4424 27.2687 18.1832 26.5303 19.097 26.5303C20.0109 26.5303 20.7517 27.2687 20.7517 28.1796Z" fill="#22B573"/>
<path d="M30.4072 16.0235C30.746 16.329 30.7722 16.8505 30.4656 17.1882L28.5068 19.3463C28.3589 19.5092 28.3651 19.7591 28.521 19.9144L29.6098 20.9997C29.9329 21.3218 29.9329 21.8439 29.6098 22.1659C29.2867 22.488 28.7629 22.488 28.4398 22.1659L27.4387 21.1681C27.2714 21.0014 26.9982 21.0082 26.8395 21.1831L22.606 25.847C22.2994 26.1847 21.7762 26.2108 21.4374 25.9052C21.0986 25.5997 21.0724 25.0782 21.379 24.7405L29.2386 16.0817C29.5452 15.744 30.0684 15.7179 30.4072 16.0235Z" fill="#22B573"/>
<path d="M14.3751 23.4736C14.6982 23.1516 15.2221 23.1516 15.5452 23.4736L16.7862 24.7106C17.1092 25.0327 17.1092 25.5548 16.7862 25.8768C16.4631 26.1989 15.9392 26.1989 15.6161 25.8768L14.3751 24.6399C14.052 24.3178 14.052 23.7957 14.3751 23.4736Z" fill="#22B573"/>
<path d="M15.3031 21.0993L17.9271 23.7148C18.5733 24.3589 19.6209 24.3589 20.2671 23.7148L24.5457 19.45C25.1919 18.806 25.1919 17.7617 24.5457 17.1176L21.9218 14.5022C21.2756 13.8581 20.2279 13.8581 19.5817 14.5022L15.3031 18.7669C14.6569 19.411 14.6569 20.4553 15.3031 21.0993Z" fill="#22B573"/>
</svg>
